<svg xmlns="http://www.w3.org/2000/svg" width="176" height="53" viewBox="0 0 176 53">
  <defs>
    <style>
      .cls-1 {
        fill: #737c93;
        fill-rule: evenodd;
      }
    </style>
  </defs>
  <path id="logo_" data-name="logo  " class="cls-1" d="M55.7,70.961c0,3.885-3.424,7.034-7.647,7.034s-7.647-3.149-7.647-7.034,3.424-7.033,7.647-7.033S55.7,67.077,55.7,70.961Zm25.365,0.078a5.427,5.427,0,1,1-5.408-4.975A5.2,5.2,0,0,1,81.067,71.039Zm19.8,0a2.464,2.464,0,1,1-2.455-2.259A2.362,2.362,0,0,1,100.868,71.039ZM74.2,56.225a2.219,2.219,0,0,1-2.34-2.153V44.913c0-3.16-1.643-5.587-5.328-5.587a5.589,5.589,0,0,0-5.925,5.633v9.114a2.161,2.161,0,0,1-2.34,2.153,2.189,2.189,0,0,1-2.34-2.153V44.913c0-3.16-1.793-5.587-5.477-5.587a5.407,5.407,0,0,0-5.776,5.633v9.114a2.189,2.189,0,0,1-2.34,2.153,2.219,2.219,0,0,1-2.34-2.153V37.814a2.145,2.145,0,0,1,2.34-2.2,2.114,2.114,0,0,1,2.34,2.2V39.28A7.922,7.922,0,0,1,51.7,35.434a8.347,8.347,0,0,1,7.618,4.076,9.612,9.612,0,0,1,8.315-4.076c6.025,0,8.913,3.8,8.913,9.159v9.479A2.189,2.189,0,0,1,74.2,56.225Zm8.913-28.761a2.528,2.528,0,1,1-2.739,2.52A2.66,2.66,0,0,1,83.115,27.465Zm0,28.761a2.189,2.189,0,0,1-2.34-2.153v-16.3a2.348,2.348,0,0,1,4.68,0v16.3A2.189,2.189,0,0,1,83.115,56.225Zm15.535-13.19,5.925-6.778a2.046,2.046,0,0,1,1.544-.642,1.92,1.92,0,0,1,2.141,1.878,1.729,1.729,0,0,1-.548,1.237l-6.523,7.144,6.623,7.19a1.725,1.725,0,0,1,.548,1.283,2.02,2.02,0,0,1-2.092,1.878,2.066,2.066,0,0,1-1.643-.687l-5.975-6.823-5.975,6.823a2.065,2.065,0,0,1-1.643.687,2.02,2.02,0,0,1-2.091-1.878,1.726,1.726,0,0,1,.547-1.283l6.623-7.19-6.523-7.144a1.731,1.731,0,0,1-.548-1.237,1.92,1.92,0,0,1,2.141-1.878,2.044,2.044,0,0,1,1.544.642Zm25.544,13.373a9.145,9.145,0,0,1-7.668-3.938V62.637a2.349,2.349,0,0,1-4.681,0V37.769a2.077,2.077,0,0,1,2.241-2.153,2.153,2.153,0,0,1,2.29,2.2v1.558a9.179,9.179,0,0,1,7.818-3.939A10.274,10.274,0,0,1,134.6,45.922,10.137,10.137,0,0,1,124.193,56.409Zm-0.946-17.4a6.918,6.918,0,0,0,0,13.831c4.033,0,6.672-2.794,6.672-6.915S127.28,39.005,123.247,39.005ZM159.3,54.072a2.322,2.322,0,0,1-4.631,0V53.065a8.9,8.9,0,0,1-7.269,3.344c-6.971,0-11-4.672-11-10.487,0-5.726,4.481-10.488,11.5-10.488,7.17,0,11.4,4.3,11.4,10.488v8.151ZM147.844,39.1a6.656,6.656,0,0,0-6.772,6.825c0,3.938,2.341,6.823,6.772,6.823a6.671,6.671,0,0,0,6.772-6.823A6.4,6.4,0,0,0,147.844,39.1Zm25.544-3.663c6.025,0,10.456,4.214,10.456,9.571v9.068a2.349,2.349,0,0,1-4.681,0V44.5c0-2.885-2.489-5.128-5.775-5.128s-5.726,2.243-5.726,5.128v9.572a2.349,2.349,0,0,1-4.681,0V45C162.981,39.647,167.363,35.434,173.388,35.434Zm34.8,10.534c0,0.732-.448,1.465-1.792,1.465H191.512c0.249,3.16,2.589,5.541,6.721,5.541a7.976,7.976,0,0,0,5.776-2.244,2.368,2.368,0,0,1,1.544-.687,1.814,1.814,0,0,1,1.942,1.786,1.842,1.842,0,0,1-.6,1.236,12.456,12.456,0,0,1-8.863,3.344c-7.42,0-11.353-4.763-11.353-10.487,0-6,4.73-10.488,11.154-10.488C204.11,35.434,208.192,40.1,208.192,45.967Zm-10.356-7.1a6.021,6.021,0,0,0-6.224,5.084H203.86A5.89,5.89,0,0,0,197.836,38.868Zm15.833,17.358a2.189,2.189,0,0,1-2.34-2.153V27.144a2.349,2.349,0,0,1,4.681,0V54.072A2.189,2.189,0,0,1,213.669,56.225Z" transform="translate(-40 -25)"/>
</svg>